# xmcd
#
# Track frame offsets:
# 150
# 11767
# 26497
# 40060
# 55380
# 70002
# 85200
# 107250
# 122195
# 140320
# 154725
# 176700
# 196200
# 210675
# 236025
# 252375
#
# Disc length: 3616 seconds
#
#
# Revision: 0
# Processed by: cddbd v1.4PL0 Copyright (c) Steve Scherf et al.
# Submitted via: FreeRIP 2.00 
#
DISCID=d80e1e10
DTITLE=Various Artist - The Cry of the Blues
DYEAR=1900
DGENRE=Blues
TTITLE0=JamesCotton-DontStartMeTalkin
TTITLE1=ChampionJackDupree-Georgiana
TTITLE2=EddieVinson-KidneyStewBlues
TTITLE3=MickeyBaker-SweetHomeChicago
TTITLE4=DinahWashington-LongJohnBlues
TTITLE5=CurtisJones-YouGotGoodBusiness
TTITLE6=JohnnyCopeland-EveryDogsGotHisDay
TTITLE7=MemphisSlim-EagleRock
TTITLE8=TBoneWalker-ImInLove
TTITLE9=FurryLewis-SaintLouisBlues
TTITLE10=JoeWilliams-WhoSheDo
TTITLE11=ProfessorLonghair-TheyCallMeDoctorProfessorLonghair
TTITLE12=HelenHumes-MarriedManBlues
TTITLE13=ClarenceBrown-LongWayHome
TTITLE14=LightninHopkins-JustOutOfLouisiana
TTITLE15=BigBillBroonzy-BackwaterBlues
EXTD=
EXTT0=
EXTT1=
EXTT2=
EXTT3=
EXTT4=
EXTT5=
EXTT6=
EXTT7=
EXTT8=
EXTT9=
EXTT10=
EXTT11=
EXTT12=
EXTT13=
EXTT14=
EXTT15=
PLAYORDER=
